<?xml version="1.0" standalone="no"?><!DOCTYPE svg PUBLIC "-//W3C//DTD SVG 1.1//EN" "http://www.w3.org/Graphics/SVG/1.1/DTD/svg11.dtd"><svg t="1583433011538" class="icon" viewBox="0 0 1297 1024" version="1.1" xmlns="http://www.w3.org/2000/svg" p-id="15546" xmlns:xlink="http://www.w3.org/1999/xlink" width="253.3203125" height="200"><defs><style type="text/css"></style></defs><path d="M1155.4816 532.0704a536.7808 536.7808 0 0 0-90.999467-300.373333c-0.887467-1.501867-1.4336-3.072-2.184533-4.3008-7.3728-10.581333-15.018667-20.2752-22.801067-30.242134-0.8192-1.160533-1.8432-2.389333-2.525866-3.6864A520.874667 520.874667 0 0 0 843.639467 44.305067c-2.2528-0.887467-4.096-2.048-6.280534-2.8672-11.946667-5.12-24.1664-9.352533-36.590933-13.789867-4.3008-1.4336-8.669867-3.140267-13.1072-4.573867-10.8544-3.413333-21.504-6.007467-32.494933-8.669866-5.9392-1.4336-12.288-3.003733-18.2272-4.3008-3.003733-0.546133-5.802667-1.365333-8.874667-2.116267-8.055467-1.4336-16.1792-2.116267-24.439467-3.2768-5.870933-0.682667-11.264-1.570133-16.9984-2.116267a444.757333 444.757333 0 0 0-40.96-2.184533C643.072 0.4096 640.546133 0 638.088533 0L636.928 0.136533a503.057067 503.057067 0 0 0-295.458133 96.187734 65.1264 65.1264 0 0 0-15.223467 88.8832 61.0304 61.0304 0 0 0 86.4256 15.496533A384 384 0 0 1 675.703467 129.706667c3.549867 0.273067 6.826667 0.887467 10.376533 1.365333 9.284267 1.2288 18.500267 2.4576 27.989333 4.642133 3.959467 0.682667 7.918933 1.8432 11.741867 2.730667 9.147733 2.048 17.8176 4.232533 26.624 6.9632a60.142933 60.142933 0 0 1 8.192 2.935467c10.103467 3.413333 19.933867 6.826667 29.422933 11.127466 1.160533 0.273067 2.048 1.160533 3.003734 1.4336 58.026667 25.668267 108.7488 64.853333 148.48 114.2784 0.136533 0.136533 0.273067 0.546133 0.546133 0.8192a409.463467 409.463467 0 0 1 89.361067 256h-103.765334l165.888 255.317334 165.341867-255.317334h-103.424v0.136534z m-308.701867 290.816a385.160533 385.160533 0 0 1-262.690133 70.997333c-4.437333-0.4096-8.533333-1.092267-12.970667-1.774933-8.3968-1.160533-16.7936-2.184533-24.917333-4.027733-5.12-0.8192-10.103467-2.389333-15.018667-3.549867-7.918933-1.8432-16.042667-3.6864-23.7568-6.007467l-10.922666-4.232533a332.663467 332.663467 0 0 1-32.494934-12.288 650.376533 650.376533 0 0 1-29.9008-14.9504l-1.365333-0.682667a393.557333 393.557333 0 0 1-89.565867-68.949333c-0.4096-0.477867-0.8192-1.024-1.297066-1.4336a352.6656 352.6656 0 0 1-23.483734-26.624l-4.7104-6.007467a408.9856 408.9856 0 0 1-85.879466-251.426133h103.560533l-165.6832-255.317333L0 491.793067h103.424c0 111.684267 34.065067 215.381333 91.7504 301.2608 0.682667 1.365333 1.160533 2.730667 2.048 3.754666 5.9392 8.8064 12.629333 16.930133 18.909867 25.053867 2.525867 3.003733 4.7104 5.9392 7.099733 9.4208a599.313067 599.313067 0 0 0 32.494933 36.4544c34.747733 35.771733 73.659733 65.536 116.394667 89.7024 1.092267 0.682667 2.116267 1.160533 3.413333 2.048 12.288 6.690133 24.917333 13.1072 37.546667 18.6368 3.345067 1.365333 6.3488 3.003733 9.4208 4.3008 10.990933 4.778667 22.254933 8.669867 33.450667 12.765867 5.461333 2.048 10.581333 3.754667 16.1792 5.597866 9.8304 3.003733 19.933867 5.5296 30.173866 7.850667 6.690133 1.706667 13.380267 3.413333 20.206934 4.778667 2.8672 0.750933 5.461333 1.774933 8.260266 2.048 9.693867 1.8432 19.2512 2.730667 28.808534 3.959466 3.549867 0.682667 6.9632 1.297067 10.376533 1.706667 17.271467 1.706667 34.474667 2.8672 51.746133 2.8672 105.130667 0 207.872-33.041067 295.867734-96.256a65.058133 65.058133 0 0 0 15.428266-88.746667 60.074667 60.074667 0 0 0-86.2208-16.1792z" p-id="15547"></path></svg>