<?xml version="1.0" standalone="no"?><!DOCTYPE svg PUBLIC "-//W3C//DTD SVG 1.1//EN" "http://www.w3.org/Graphics/SVG/1.1/DTD/svg11.dtd"><svg t="1583429110295" class="icon" viewBox="0 0 1092 1024" version="1.1" xmlns="http://www.w3.org/2000/svg" p-id="4762" xmlns:xlink="http://www.w3.org/1999/xlink" width="213.28125" height="200"><defs><style type="text/css"></style></defs><path d="M1023.864167 819.193038a68.257611 68.257611 0 0 1-68.257611-68.257611V273.132148a68.257611 68.257611 0 0 1 136.515223 0v477.803279a68.257611 68.257611 0 0 1-68.257612 68.257611z m-204.772833-136.515223a68.257611 68.257611 0 0 1-68.257611-68.257611V409.647371a68.257611 68.257611 0 0 1 136.515222 0v204.772833a68.257611 68.257611 0 0 1-68.257611 68.257611z m-242.519293 336.305251a69.14496 69.14496 0 0 1-74.059508-14.675387L249.822857 755.030883 68.257611 682.677815c-58.838061-15.904023-68.257611-76.85807-68.257611-136.515222V477.904982c0-60.271471 8.600459-121.15726 68.257611-136.515222l171.463119-64.708216L502.717306 19.486865a68.940187 68.940187 0 0 1 73.991251-14.334098 66.209883 66.209883 0 0 1 41.978431 61.227077v891.307887a66.619428 66.619428 0 0 1-42.114947 61.295335z" p-id="4763"></path></svg>