<?xml version="1.0" standalone="no"?><!DOCTYPE svg PUBLIC "-//W3C//DTD SVG 1.1//EN" "http://www.w3.org/Graphics/SVG/1.1/DTD/svg11.dtd"><svg t="1583431947041" class="icon" viewBox="0 0 1024 1024" version="1.1" xmlns="http://www.w3.org/2000/svg" p-id="14681" xmlns:xlink="http://www.w3.org/1999/xlink" width="200" height="200"><defs><style type="text/css"></style></defs><path d="M259.584 61.44c-15.36-13.824-35.84-20.992-57.344-20.48h-97.28C60.928 40.96 25.6 73.728 25.6 113.664v84.48c0 39.936 35.328 72.704 79.36 72.704h99.328c44.032 0 79.36-32.768 79.36-72.704V113.664c0-19.456-8.704-38.4-24.064-52.224zM977.408 61.44c-15.36-13.824-35.84-20.992-57.344-20.48H420.352c-43.52 0-79.36 32.256-79.36 72.704v84.48c0 19.456 8.192 37.888 23.04 51.2 14.848 13.824 34.816 20.992 55.808 20.992h499.712c21.504 0.512 41.984-7.168 57.344-20.48 15.36-13.824 24.064-32.256 24.064-51.712V113.664c0-19.968-8.704-38.4-23.552-52.224zM204.288 385.024H104.96C60.928 385.024 25.6 417.792 25.6 457.728v84.48c0 19.456 8.192 37.376 23.04 51.2s35.328 20.992 56.32 20.992h97.28c21.504 0.512 41.984-7.168 57.344-20.48 15.36-13.824 24.064-32.256 24.064-51.712V457.728c0-39.936-35.328-72.704-79.36-72.704zM977.408 406.016c-15.36-13.824-35.84-20.992-57.344-20.48H420.352c-43.52 0-79.36 32.256-79.36 72.192v84.48c0 18.944 8.192 37.376 23.04 51.2S398.848 614.4 419.84 614.4h499.712c21.504 0.512 41.984-7.168 57.344-20.48 15.36-13.824 24.064-32.256 24.064-51.712V457.728c0-19.456-8.704-38.4-23.552-51.712zM204.288 758.272H104.96c-44.032 0-79.36 32.256-79.36 72.192v84.48c0 19.456 8.192 37.376 23.04 51.2s35.328 20.992 56.32 20.992h97.28c21.504 0.512 41.984-7.168 57.344-20.48s24.064-32.256 24.064-51.712v-84.48c0-39.936-35.328-72.192-79.36-72.192zM977.408 778.752c-15.36-13.824-35.84-20.992-57.344-20.48H420.352c-43.52 0-79.36 32.256-79.36 72.192v84.48c0 18.944 8.192 37.376 23.04 51.2s34.816 20.992 55.808 20.992h499.712c21.504 0.512 41.984-7.168 57.344-20.48 15.36-13.824 24.064-32.256 24.064-51.712v-84.48c0-19.456-8.704-37.888-23.552-51.712z" fill="" p-id="14682"></path></svg>