<?xml version="1.0" standalone="no"?><!DOCTYPE svg PUBLIC "-//W3C//DTD SVG 1.1//EN" "http://www.w3.org/Graphics/SVG/1.1/DTD/svg11.dtd"><svg t="1583431893762" class="icon" viewBox="0 0 1024 1024" version="1.1" xmlns="http://www.w3.org/2000/svg" p-id="13916" xmlns:xlink="http://www.w3.org/1999/xlink" width="200" height="200"><defs><style type="text/css"></style></defs><path d="M356.037902 0H81.002872C37.606503 0 2.422166 35.181267 2.422166 78.577636v275.038101c0 43.400462 35.184337 78.58173 78.581729 78.581729h275.034007c43.396369 0 78.58173-35.181267 78.58173-78.581729V78.577636C434.618609 35.181267 399.434272 0 356.037902 0z m589.355809 0H670.362774c-43.400462 0-78.5848 35.181267-78.584799 78.577636v275.038101c0 43.400462 35.184337 78.58173 78.584799 78.581729h275.030937c43.404556 0 78.5848-35.181267 78.5848-78.581729V78.577636C1023.978511 35.181267 988.797243 0 945.393711 0zM356.037902 589.359902H81.002872c-43.396369 0-78.58173 35.181267-78.58173 78.58173v275.034007c0 43.396369 35.184337 78.58173 78.58173 78.581729h275.034007c43.396369 0 78.58173-35.184337 78.58173-78.581729v-275.034007c0-43.401486-35.184337-78.58173-78.580707-78.58173z m589.355809 0H670.362774c-43.400462 0-78.5848 35.181267-78.584799 78.58173v275.034007c0 43.396369 35.184337 78.58173 78.584799 78.581729h275.030937c43.404556 0 78.5848-35.184337 78.5848-78.581729v-275.034007c0-43.401486-35.181267-78.58173-78.5848-78.58173z" p-id="13917"></path></svg>