<?xml version="1.0" standalone="no"?><!DOCTYPE svg PUBLIC "-//W3C//DTD SVG 1.1//EN" "http://www.w3.org/Graphics/SVG/1.1/DTD/svg11.dtd"><svg t="1583429983605" class="icon" viewBox="0 0 1024 1024" version="1.1" xmlns="http://www.w3.org/2000/svg" p-id="5623" xmlns:xlink="http://www.w3.org/1999/xlink" width="200" height="200"><defs><style type="text/css"></style></defs><path d="M873.3 848.3L754.6 729.5c61.1-63.9 98.9-150.2 98.9-245.4 0-196.1-159.5-355.6-355.6-355.6S142.3 288.1 142.3 484.1s159.5 355.6 355.6 355.6c81.2 0 155.9-27.7 215.9-73.7l120.9 120.9c5.1 5.2 12.1 8 19.3 8 7.3 0 14.2-2.9 19.3-8 10.7-10.6 10.7-28 0-38.6zM197 484.1c0-165.9 135-300.9 300.9-300.9 165.9 0 300.9 135 300.9 300.9 0 165.9-135 300.9-300.9 300.9-166 0-300.9-135-300.9-300.9z m0 0" p-id="5624"></path><path d="M622.4 456.8h-97.3v-95.7c0-15.1-12.2-27.4-27.3-27.4-15.1 0-27.4 12.2-27.4 27.4v95.7h-95.7c-15.1 0-27.4 12.2-27.4 27.4 0 15.1 12.2 27.4 27.4 27.4h95.7v95.7c0 15.1 12.2 27.4 27.4 27.4 15.1 0 27.3-12.2 27.3-27.4v-95.7h97.3c15.1 0 27.4-12.2 27.4-27.4s-12.2-27.4-27.4-27.4z m0 0" p-id="5625"></path></svg>